<svg width="1242" height="300" viewBox="0 0 1242 300" fill="none" xmlns="http://www.w3.org/2000/svg">
<rect width="300" height="300" rx="49" fill="#DFDFDF"/>
<rect x="314" width="300" height="300" rx="49" fill="#DFDFDF"/>
<rect x="628" width="300" height="300" rx="49" fill="#DFDFDF"/>
<rect x="942" width="300" height="300" rx="49" fill="#DFDFDF"/>
<rect x="21" y="16" width="250" height="250" rx="49" fill="#F4F4F4"/>
<path d="M138.412 94.3555H149.18V113H170.354V125.43H149.18V162.863C149.18 166.091 149.637 168.38 150.553 169.729C151.227 170.788 152.48 171.463 154.311 171.752C156.189 171.993 158.333 171.921 160.742 171.535C163.151 171.15 165.464 170.523 167.68 169.656L172.16 181.219C164.548 185.073 156.768 187 148.818 187C140.869 187 135.497 185.314 132.703 181.941C129.909 178.521 128.512 173.559 128.512 167.055V125.43H121.863L120.201 116.396C121.791 114.518 125.043 112.639 129.957 110.76C131.21 102.618 134.028 97.1497 138.412 94.3555Z" fill="#4B4B4B"/>
<rect x="337" y="15" width="250" height="250" rx="49" fill="#F4F4F4"/>
<rect x="655" y="15" width="250" height="250" rx="49" fill="#F4F4F4"/>
<rect x="971" y="15" width="250" height="250" rx="49" fill="#F4F4F4"/>
<path d="M420.881 93.3438L422.326 81.9258C427.915 80.625 433.07 79.9746 437.791 79.9746C442.512 79.9746 446.487 80.1191 449.715 80.4082V117.408C452.124 115.867 455.279 114.566 459.182 113.506C463.132 112.398 466.649 111.844 469.732 111.844C479.512 111.844 486.257 114.204 489.967 118.926C493.725 123.647 495.604 130.85 495.604 140.533V170.596C499.458 172.041 502.18 173.703 503.77 175.582L502.252 187H468.215L466.77 175.582C468.118 173.703 470.84 172.041 474.936 170.596V141.256C474.936 135.908 474.068 132.343 472.334 130.561C470.985 129.115 468.986 128.248 466.336 127.959C463.734 127.622 460.94 127.839 457.953 128.609C454.966 129.38 452.22 130.681 449.715 132.512V170.596C453.569 172.041 456.291 173.703 457.881 175.582L456.436 187H422.326L420.881 175.582C422.23 173.703 424.952 172.041 429.047 170.596V98.3301C425.53 97.1738 422.808 95.5117 420.881 93.3438Z" fill="#4B4B4B"/>
<path d="M1056.04 93.3438L1057.48 81.9258C1063.07 80.625 1068.23 79.9746 1072.95 79.9746C1077.67 79.9746 1081.64 80.1191 1084.87 80.4082V170.596C1088.73 172.041 1091.45 173.703 1093.04 175.582L1091.59 187H1057.48L1056.04 175.582C1057.39 173.703 1060.11 172.041 1064.2 170.596V98.3301C1060.69 97.1738 1057.96 95.5117 1056.04 93.3438ZM1137.55 175.582L1136.11 187H1112.4L1086.24 148.699L1102.5 127.525C1100.72 126.465 1099.54 125.43 1098.96 124.418L1100.41 113H1133L1134.45 124.418C1132.28 127.164 1128.18 129.332 1122.16 130.922L1108 147.182L1124.69 169.223C1130.76 170.572 1135.05 172.691 1137.55 175.582Z" fill="#4B4B4B"/>
<path d="M815.627 148.193C815.627 157.829 813.989 165.585 810.713 171.463C807.437 177.292 802.98 181.532 797.344 184.182C791.755 186.783 785.444 188.084 778.41 188.084C767.426 188.084 758.971 185.169 753.045 179.34C747.167 173.462 744.229 163.61 744.229 149.783C744.229 137.354 747.48 127.935 753.984 121.527C760.536 115.072 769.473 111.844 780.795 111.844C792.357 111.844 801.053 114.686 806.883 120.371C812.712 126.056 815.627 135.33 815.627 148.193ZM765.764 149.422C765.764 165.176 770.509 173.053 780 173.053C784.818 173.053 788.383 171.27 790.695 167.705C793.008 164.092 794.164 158.19 794.164 150C794.164 134.632 789.322 126.947 779.639 126.947C774.917 126.947 771.424 128.658 769.16 132.078C766.896 135.451 765.764 141.232 765.764 149.422Z" fill="#4B4B4B"/>
</svg>
