<svg width="1556" height="300" viewBox="0 0 1556 300" fill="none" xmlns="http://www.w3.org/2000/svg">
<rect width="300" height="300" rx="49" fill="#DFDFDF"/>
<rect x="314" width="300" height="300" rx="49" fill="#DFDFDF"/>
<rect x="628" width="300" height="300" rx="49" fill="#DFDFDF"/>
<rect x="942" width="300" height="300" rx="49" fill="#DFDFDF"/>
<rect x="21" y="16" width="250" height="250" rx="49" fill="#F4F4F4"/>
<path d="M138.412 94.3555H149.18V113H170.354V125.43H149.18V162.863C149.18 166.091 149.637 168.38 150.553 169.729C151.227 170.788 152.48 171.463 154.311 171.752C156.189 171.993 158.333 171.921 160.742 171.535C163.151 171.15 165.464 170.523 167.68 169.656L172.16 181.219C164.548 185.073 156.768 187 148.818 187C140.869 187 135.497 185.314 132.703 181.941C129.909 178.521 128.512 173.559 128.512 167.055V125.43H121.863L120.201 116.396C121.791 114.518 125.043 112.639 129.957 110.76C131.21 102.618 134.028 97.1497 138.412 94.3555Z" fill="#4B4B4B"/>
<rect x="337" y="15" width="250" height="250" rx="49" fill="#F4F4F4"/>
<rect x="653" y="15" width="250" height="250" rx="49" fill="#F4F4F4"/>
<rect x="969" y="15" width="250" height="250" rx="49" fill="#F4F4F4"/>
<path d="M420.881 93.3438L422.326 81.9258C427.915 80.625 433.07 79.9746 437.791 79.9746C442.512 79.9746 446.487 80.1191 449.715 80.4082V117.408C452.124 115.867 455.279 114.566 459.182 113.506C463.132 112.398 466.649 111.844 469.732 111.844C479.512 111.844 486.257 114.204 489.967 118.926C493.725 123.647 495.604 130.85 495.604 140.533V170.596C499.458 172.041 502.18 173.703 503.77 175.582L502.252 187H468.215L466.77 175.582C468.118 173.703 470.84 172.041 474.936 170.596V141.256C474.936 135.908 474.068 132.343 472.334 130.561C470.985 129.115 468.986 128.248 466.336 127.959C463.734 127.622 460.94 127.839 457.953 128.609C454.966 129.38 452.22 130.681 449.715 132.512V170.596C453.569 172.041 456.291 173.703 457.881 175.582L456.436 187H422.326L420.881 175.582C422.23 173.703 424.952 172.041 429.047 170.596V98.3301C425.53 97.1738 422.808 95.5117 420.881 93.3438Z" fill="#4B4B4B"/>
<path d="M1054.04 93.3438L1055.48 81.9258C1061.07 80.625 1066.23 79.9746 1070.95 79.9746C1075.67 79.9746 1079.64 80.1191 1082.87 80.4082V170.596C1086.73 172.041 1089.45 173.703 1091.04 175.582L1089.59 187H1055.48L1054.04 175.582C1055.39 173.703 1058.11 172.041 1062.2 170.596V98.3301C1058.69 97.1738 1055.96 95.5117 1054.04 93.3438ZM1135.55 175.582L1134.11 187H1110.4L1084.24 148.699L1100.5 127.525C1098.72 126.465 1097.54 125.43 1096.96 124.418L1098.41 113H1131L1132.45 124.418C1130.28 127.164 1126.18 129.332 1120.16 130.922L1106 147.182L1122.69 169.223C1128.76 170.572 1133.05 172.691 1135.55 175.582Z" fill="#4B4B4B"/>
<rect x="1256" width="300" height="300" rx="49" fill="#DFDFDF"/>
<rect x="1285" y="15" width="250" height="250" rx="49" fill="#F4F4F4"/>
<path d="M1429.51 131.211C1422.09 131.211 1416.91 132.632 1413.97 135.475V169.367C1422.07 170.909 1427.56 172.98 1430.45 175.582L1428.93 187H1386.59L1385.14 175.582C1386.49 173.703 1389.21 172.041 1393.31 170.596V129.404C1389.79 128.248 1387.07 126.586 1385.14 124.418L1386.59 113C1391.89 111.796 1396.78 111.193 1401.26 111.193C1403.42 111.193 1405.4 111.242 1407.18 111.338C1409.01 111.386 1410.65 111.458 1412.1 111.555V120.877C1414.36 118.179 1417.27 115.963 1420.84 114.229C1423.83 112.831 1426.81 112.012 1429.8 111.771C1432.79 111.531 1435.03 111.747 1436.52 112.422L1436.09 131.645C1434.16 131.355 1431.97 131.211 1429.51 131.211Z" fill="#4B4B4B"/>
<path d="M813.627 148.193C813.627 157.829 811.989 165.585 808.713 171.463C805.437 177.292 800.98 181.532 795.344 184.182C789.755 186.783 783.444 188.084 776.41 188.084C765.426 188.084 756.971 185.169 751.045 179.34C745.167 173.462 742.229 163.61 742.229 149.783C742.229 137.354 745.48 127.935 751.984 121.527C758.536 115.072 767.473 111.844 778.795 111.844C790.357 111.844 799.053 114.686 804.883 120.371C810.712 126.056 813.627 135.33 813.627 148.193ZM763.764 149.422C763.764 165.176 768.509 173.053 778 173.053C782.818 173.053 786.383 171.27 788.695 167.705C791.008 164.092 792.164 158.19 792.164 150C792.164 134.632 787.322 126.947 777.639 126.947C772.917 126.947 769.424 128.658 767.16 132.078C764.896 135.451 763.764 141.232 763.764 149.422Z" fill="#4B4B4B"/>
</svg>
